HIERARCHY
ROOT ui
{
	 OFFSET 0 0 0
	 CHANNELS 3 XPosition YPosition Z Position
	 EndSite
	 {
	 OFFSET 0 -1 0
	 }
}
ROOT li
{
	 OFFSET 0 0 0
	 CHANNELS 3 XPosition YPosition Z Position
	 EndSite
	 {
	 OFFSET 0 -1 0
	 }
}
ROOT ul
{
	 OFFSET 0 0 0
	 CHANNELS 3 XPosition YPosition Z Position
	 EndSite
	 {
	 OFFSET 0 -1 0
	 }
}
ROOT ll
{
	 OFFSET 0 0 0
	 CHANNELS 3 XPosition YPosition Z Position
	 EndSite
	 {
	 OFFSET 0 -1 0
	 }
}
ROOT tt
{
	 OFFSET 0 0 0
	 CHANNELS 3 XPosition YPosition Z Position
	 EndSite
	 {
	 OFFSET 0 -1 0
	 }
}
ROOT tb
{
	 OFFSET 0 0 0
	 CHANNELS 3 XPosition YPosition Z Position
	 EndSite
	 {
	 OFFSET 0 -1 0
	 }
}
ROOT td
{
	 OFFSET 0 0 0
	 CHANNELS 3 XPosition YPosition Z Position
	 EndSite
	 {
	 OFFSET 0 -1 0
	 }
}
ROOT v
{
	 OFFSET 0 0 0
	 CHANNELS 3 XPosition YPosition Z Position
	 EndSite
	 {
	 OFFSET 0 -1 0
	 }
}
ROOT bn
{
	 OFFSET 0 0 0
	 CHANNELS 3 XPosition YPosition Z Position
	 EndSite
	 {
	 OFFSET 0 -1 0
	 }
}
MOTION
Frames: 32
Frame Time: 0.002
3.636400029063225E-5	-0.0010434789657592773	0		0.5180713500976563	-2.3373095703125	0		-1.035688720703125	-0.040076629638671875	0		-0.77991064453125	-2.261284912109375	0		1.48977783203125	-0.5480812377929688	0		3.211125244140625	-0.21458575439453126	0		4.650958984375	-0.10677601623535156	0		5.5772109375	0.09696485137939453	0		-0.0675906982421875	5.9897119140625	0		
0.004954142093658447	-0.005654626846313476	0		0.5332797241210937	-2.334037841796875	0		-1.0356907958984376	-0.03968653869628906	0		-0.7916738891601562	-2.25569287109375	0		1.4839052734375	-0.5414170532226562	0		3.215227294921875	-0.20795059204101562	0		4.65274658203125	-0.12000365447998047	0		5.57719873046875	0.09783326721191406	0		-0.10310153198242188	5.98570947265625	0		
-0.004020652770996094	-0.004067607879638672	0		0.4785118408203125	-2.32970947265625	0		-1.039739990234375	-0.04325173568725586	0		-0.7935300903320313	-2.257270751953125	0		1.5308258056640625	-0.5495758056640625	0		3.227157958984375	-0.21344776916503908	0		4.64176513671875	-0.11904464721679688	0		5.5772001953125	0.098692138671875	0		-0.10353263854980468	5.9861513671875	0		
-0.003996835947036743	-0.0036383209228515625	0		0.5165643920898437	-2.338821533203125	0		-1.0356529541015624	-0.03895940399169922	0		-0.7814342041015625	-2.2630810546875	0		1.4899246826171875	-0.5464113159179688	0		3.22130419921875	-0.20569195556640624	0		4.65688671875	-0.11250457000732422	0		5.5830791015625	0.09043911743164063	0		-0.13704917907714845	5.98007568359375	0		
0.005027697086334228	-0.004367764949798584	0		0.4938959045410156	-2.33003076171875	0		-1.107541015625	-0.03353771591186523	0		-0.7791866455078125	-2.259760498046875	0		1.49304931640625	-0.5429434814453125	0		3.220223388671875	-0.214038330078125	0		4.64902685546875	-0.10564399719238281	0		5.5864755859375	0.11519749450683593	0		-0.10334987640380859	5.98595751953125	0		
0.00320810604095459	0.004043947219848633	0		0.5361270141601563	-2.3292470703125	0		-1.0355477294921875	-0.03831622695922852	0		-0.7888641357421875	-2.25228271484375	0		1.4901014404296875	-0.545412353515625	0		3.246400146484375	-0.2068254699707031	0		4.65700244140625	-0.11105958557128906	0		5.57730224609375	0.10110390472412109	0		-0.06961866760253907	5.99181982421875	0		
0.0011231420040130615	-0.006568733215332031	0		0.5172288208007813	-2.337569580078125	0		-1.035465087890625	-0.03802907943725586	0		-0.7906643676757813	-2.253948974609375	0		1.525273681640625	-0.5414828491210938	0		3.23049560546875	-0.20601419067382812	0		4.6460908203125	-0.11022966766357421	0		5.57737548828125	0.10182997131347657	0		-0.07092123413085938	5.99318603515625	0		
-0.003714411020278931	-0.0021659560203552246	0		0.5424149780273437	-2.341581298828125	0		-1.0394202880859376	-0.041705490112304684	0		-0.7924506225585938	-2.255639892578125	0		1.481384521484375	-0.5424012451171875	0		3.227535888671875	-0.21043731689453124	0		4.6571982421875	-0.10977342224121094	0		5.577470703125	0.10250899505615234	0		-0.10528195190429687	5.9880185546875	0		
-0.0035897979736328124	-0.00186558997631073	0		0.49281625366210935	-2.33150634765625	0		-1.0352342529296874	-0.037525833129882814	0		-0.7802843017578125	-2.261563720703125	0		1.531475830078125	-0.5467569580078125	0		3.2265390625	-0.2189314727783203	0		4.6512109375	-0.11710942840576172	0		5.58242529296875	0.09206371307373047	0		-0.13663926696777343	5.97977490234375	0		
0.008587168693542481	2.2898299992084504E-4	0		0.5579205322265625	-2.3431689453125	0		-1.0191743774414062	-0.043545368194580075	0		-0.8129063110351562	-2.2538447265625	0		1.5047606201171875	-0.5390021362304688	0		3.255052001953125	-0.19490199279785156	0		4.66466064453125	-0.09678028869628906	0		5.58695361328125	0.11857585144042969	0		-0.10272845458984375	5.98553564453125	0		
0.012819544792175293	0.004415407180786133	0		0.5223756713867187	-2.331365478515625	0		-1.0308494873046874	-0.033173702239990235	0		-0.775655517578125	-2.256185302734375	0		1.5318543701171874	-0.546080810546875	0		3.2001083984375	-0.20268344116210937	0		4.6466640625	-0.10803873443603515	0		5.57790087890625	0.10423004913330078	0		-0.10481861877441406	5.9878056640625	0		
-0.0030684709548950196	-0.001129196047782898	0		0.5097375183105469	-2.326932861328125	0		-1.0347076416015626	-0.03694123458862305	0		-0.7893115844726563	-2.252795166015625	0		1.4852001953125	-0.5371034545898438	0		3.228224609375	-0.20873548889160157	0		4.6578662109375	-0.10777735137939454	0		5.57809521484375	0.10469446563720704	0		-0.10488374328613281	5.98801953125	0		
0.0020944719314575197	-0.00501061487197876	0		0.5168884887695312	-2.337822998046875	0		-1.0344840087890625	-0.0367900390625	0		-0.78114892578125	-2.262750732421875	0		1.5233658447265626	-0.5424111328125	0		3.212456787109375	-0.20818241882324218	0		4.64709423828125	-0.10724173736572265	0		5.57831298828125	0.10510456085205078	0		-0.07081153869628906	5.99370703125	0		
0.0023377270698547365	-0.004845396041870117	0		0.4922877502441406	-2.332274169921875	0		-1.1102169189453126	-0.03454692077636719	0		-0.8537177734375	-2.254543701171875	0		1.4916163330078125	-0.5427247314453125	0		3.238806884765625	-0.20128872680664062	0		4.66320703125	-0.11615055847167968	0		5.588537109375	0.10431475830078125	0		-0.13795747375488282	5.98185302734375	0		
0.004759573936462402	0.006263826847076416	0		0.5236439208984375	-2.330573486328125	0		-1.0299195556640626	-0.03261040115356445	0		-0.7764273681640625	-2.25755517578125	0		1.4918935546875	-0.5425409545898437	0		3.20596044921875	-0.2085697326660156	0		4.66169140625	-0.10084510803222656	0		5.58292724609375	0.1137067642211914	0		-0.10280435180664063	5.98647607421875	0		
0.006917846202850342	-0.0016489880084991455	0		0.49498117065429686	-2.330021728515625	0		-1.029643310546875	-0.03252095794677735	0		-0.7760950317382812	-2.257459228515625	0		1.4921826171875	-0.542387939453125	0		3.264307861328125	-0.20422068786621095	0		4.6588818359375	-0.10656774139404297	0		5.57908349609375	0.10602216339111328	0		-0.07058107757568359	5.99312109375	0		
0.0031596229076385498	-0.0044976091384887696	0		0.537325439453125	-2.329531005859375	0		-1.0334154052734374	-0.036391315460205076	0		-0.787688232421875	-2.25220849609375	0		1.4924791259765624	-0.5422638549804687	0		3.22251416015625	-0.2094464416503906	0		4.65916943359375	-0.106376953125	0		5.5793662109375	0.10623234558105468	0		-0.10449159240722657	5.98870849609375	0		
-0.00149275803565979	-3.5387501120567324E-4	0		0.48473263549804685	-2.32367919921875	0		-1.0331259765625	-0.03633776473999024	0		-0.7893897094726563	-2.25412158203125	0		1.48971923828125	-0.546122802734375	0		3.2298349609375	-0.20742189025878907	0		4.6594599609375	-0.10622559356689452	0		5.585521484375	0.0973131103515625	0		-0.10430571746826171	5.98877783203125	0		
0.003734369993209839	-0.004374180793762207	0		0.554693359375	-2.348636474609375	0		-1.0328397216796874	-0.03629970932006836	0		-0.7771619262695313	-2.260254150390625	0		1.4930703125	-0.5420947265625	0		3.22899267578125	-0.21631072998046874	0		4.65771826171875	-0.10808130645751954	0		5.589921875	0.10538157653808594	0		-0.10213011169433593	5.98679931640625	0		
0.015154202461242676	0.005500181198120117	0		0.5092155456542968	-2.332928466796875	0		-1.0885869140625	-0.03746063232421875	0		-0.7727913208007813	-2.25528515625	0		1.50436474609375	-0.5412044067382813	0		3.257616455078125	-0.19265243530273438	0		4.66108203125	-0.10204331970214844	0		5.5942978515625	0.11241432952880859	0		-0.07159825897216797	6.0083955078125	0		
0.006426331996917725	0.006652068138122558	0		0.5426155395507812	-2.32438427734375	0		-1.0282491455078124	-0.03231936264038086	0		-0.7824017944335937	-2.247125	0		1.496655029296875	-0.539056884765625	0		3.223631103515625	-0.2091131134033203	0		4.6633681640625	-0.10001936340332031	0		5.58633642578125	0.09759178924560546	0		-0.1367683563232422	5.98236328125	0		
0.011580057144165039	0.0015888960361480713	0		0.4947405090332031	-2.331675048828125	0		-1.0320797119140626	-0.03625599670410156	0		-0.77635546875	-2.260205078125	0		1.528895263671875	-0.5385070190429687	0		3.23088720703125	-0.20719337463378906	0		4.649509765625	-0.1057880859375	0		5.5806943359375	0.10670892333984375	0		-0.10248149108886719	5.987876953125	0		
0.00467747688293457	-0.004311131954193115	0		0.5468203735351562	-2.339431396484375	0		-1.0359534912109376	-0.04020123672485352	0		-0.7880801391601563	-2.25403466796875	0		1.4909676513671875	-0.5459545288085937	0		3.219970703125	-0.21403079223632812	0		4.6606923828125	-0.10594382476806641	0		5.5808779296875	0.10671421813964843	0		-0.10329122924804687	5.98888916015625	0		
-0.05311752319335938	0.0015177429914474488	0		0.46808395385742185	-2.329298095703125	0		-1.1077470703125	-0.03416824722290039	0		-0.7740006103515625	-2.257250244140625	0		1.4941512451171874	-0.5420126342773437	0		3.225299560546875	-0.20012030029296876	0		4.6569931640625	-0.09390346527099609	0		5.59584326171875	0.09548036193847656	0		-0.06810610961914063	5.9923671875	0		
0.008903031349182128	-0.001405534029006958	0		0.5261283569335937	-2.330164794921875	0		-1.0276558837890626	-0.03235098648071289	0		-0.848869384765625	-2.251182373046875	0		1.4942061767578125	-0.5420391845703125	0		3.224224609375	-0.20913555908203124	0		4.66396142578125	-0.10003871917724609	0		5.5851767578125	0.1146016845703125	0		-0.10111917114257812	5.98682470703125	0		
-0.04105550384521484	0.003288469076156616	0		0.4991441650390625	-2.326806884765625	0		-1.027677978515625	-0.03237921142578125	0		-0.7818341674804687	-2.247185302734375	0		1.49418212890625	-0.5420768432617188	0		3.234302734375	-0.2023257293701172	0		4.66393896484375	-0.10008821868896485	0		5.58103955078125	0.10660770416259766	0		-0.10111872100830079	5.98679296875	0		
-2.0638799667358398E-4	-3.4738099575042726E-4	0		0.5389967651367188	-2.329430908203125	0		-1.0318387451171875	-0.03635615921020508	0		-0.7839912109375	-2.250192626953125	0		1.49407666015625	-0.5421243896484375	0		3.23419873046875	-0.20238157653808594	0		4.66074853515625	-0.10610665893554687	0		5.58093701171875	0.1065406494140625	0		-0.10316382598876953	5.98878173828125	0		
-0.04844153213500976	-0.0036971850395202638	0		0.5108048400878906	-2.329074951171875	0		-1.0360787353515626	-0.04034006118774414	0		-0.786214599609375	-2.25220703125	0		1.484921630859375	-0.5400501708984375	0		3.21903173828125	-0.2012296142578125	0		4.6495673828125	-0.1060206298828125	0		5.58075537109375	0.1064616470336914	0		-0.06924370574951172	5.9932392578125	0		
0.0042990632057189945	-0.004523084163665771	0		0.49652392578125	-2.329929443359375	0		-1.10825244140625	-0.03434218215942383	0		-0.8494752807617187	-2.251341064453125	0		1.493634521484375	-0.5422450561523438	0		3.229557373046875	-0.21646267700195312	0		4.65828271484375	-0.10823461151123047	0		5.5953408203125	0.09515572357177735	0		-0.08640132904052734	5.99743115234375	0		
0.011072248458862304	0.0013134590387344361	0		0.5361039428710938	-2.336574951171875	0		-1.0126343994140625	-0.039792633056640624	0		-0.77285498046875	-2.255516845703125	0		1.507388916015625	-0.5375198974609375	0		3.24160498046875	-0.19172174072265624	0		4.6610556640625	-0.10236990356445312	0		5.59914404296875	0.1029996109008789	0		-0.07153202056884765	6.00715185546875	0		
0.014770964622497558	0.005189907073974609	0		0.524817138671875	-2.330484130859375	0		-1.024846923828125	-0.029676725387573242	0		-0.7732297973632812	-2.255576171875	0		1.4959981689453126	-0.539434814453125	0		3.222984375	-0.20954515075683594	0		4.66272509765625	-0.10049652099609375	0		5.583947265625	0.11411302947998046	0		-0.10215186309814453	5.9865263671875	0		
0.002350619077682495	0.0032977769374847414	0		0.5394633178710937	-2.326774169921875	0		-1.0333408203125	-0.03661859512329101	0		-0.7855656127929688	-2.250463134765625	0		1.49255810546875	-0.5424693603515625	0		3.21770751953125	-0.20156500244140624	0		4.65924462890625	-0.10655510711669922	0		5.579439453125	0.1060621337890625	0		-0.10249831390380859	5.9864599609375	0		
